<svg xmlns="http://www.w3.org/2000/svg" version="1.0" width="110" height="110" preserveAspectRatio="xMidYMid meet"><rect id="backgroundrect" width="100%" height="100%" x="0" y="0" fill="none" stroke="none" class=""/>
<metadata>
Created by potrace 1.13, written by Peter Selinger 2001-2015
</metadata>

<g class="currentLayer"><title>Layer 1</title><g transform="translate(0,94) scale(0.10000000149011612,-0.10000000149011612) " fill="#ffffff" stroke="none" id="svg_1" class="selected" fill-opacity="1">
<path d="M484.26861691474915,834.8750000000036 c-8,-10 -69,-80 -135,-156 c-66,-76 -120,-140 -120,-142 c0,-3 28,-5 63,-5 l63,0 l74,85 c100,116 111,116 211,0 l74,-85 l63,0 c34,0 62,3 62,6 c0,3 -51,63 -113,133 c-62,69 -120,138 -130,154 c-14,22 -25,27 -57,27 c-26,0 -45,-6 -55,-17 z" id="svg_2" fill="#ffffff" fill-opacity="1"/>
<path d="M74.26861691474915,465.87500000000364 c-11,-12 -15,-31 -13,-68 c2,-41 7,-53 25,-61 c17,-7 29,-38 64,-160 c47,-167 60,-200 88,-215 c26,-14 596,-14 622,0 c28,15 41,48 88,215 c35,122 47,153 64,160 c18,8 23,20 25,61 c5,89 36,84 -488,84 c-409,0 -460,-2 -475,-16 zm266,-164 c23,-27 64,-210 52,-230 c-15,-23 -68,-25 -91,-2 c-18,18 -62,176 -62,222 c0,42 69,48 101,10 zm237,14 c20,-14 22,-23 22,-124 c0,-115 -9,-140 -50,-140 c-41,0 -50,25 -50,140 c0,101 2,110 22,124 c12,9 25,16 28,16 c3,0 16,-7 28,-16 zm263,6 c24,-13 24,-27 -2,-140 c-23,-101 -43,-130 -88,-130 c-52,0 -57,19 -32,127 c26,111 34,131 64,143 c29,12 35,12 58,0 z" id="svg_3" fill="#ffffff" fill-opacity="1"/>
</g></g></svg>