<svg xmlns="http://www.w3.org/2000/svg" version="1.0" width="110" height="110" preserveAspectRatio="xMidYMid meet"><rect id="backgroundrect" width="100%" height="100%" x="0" y="0" fill="none" stroke="none" class=""/>
<metadata>
Created by potrace 1.13, written by Peter Selinger 2001-2015
</metadata>

<g class="currentLayer"><title>Layer 1</title><g fill="#ffffff" stroke="none" id="svg_1" class="selected" fill-opacity="1" transform="rotate(-179.9494171142578 55.046348571777344,54.72523498535156) ">
<path d="M4.010336193477431,98.03831396655323 l-3.3184848840926913,-3.340636452918956 l0,-29.835339355379638 c0,-32.60000400607118 0.11443051324457612,-33.06078144785311 6.865830794674532,-36.631806621663024 c2.5174712913806614,-1.2671379649002932 7.323552847652835,-1.727915406682218 18.881034685354965,-1.727915406682218 l15.448119288017699,0 l0,-4.031802615591841 l0,-3.91660825514636 l-7.666844387386562,-0.34558308133644655 l-7.781274900631136,-0.34558308133644655 l-0.3432915397337282,-4.83816313871021 l-0.3432915397337282,-4.9533574991556915 l29.29421139061134,0 l29.29421139061134,0 l-0.3432915397337282,4.9533574991556915 l-0.3432915397337282,4.83816313871021 l-7.666844387386562,0.34558308133644655 l-7.781274900631136,0.34558308133644655 l0,3.91660825514636 l0,4.031802615591841 l14.87596672179482,0 c16.24913288072973,0 21.16964495024647,1.1519436044548126 24.488129834339166,5.8749123827195415 c1.6020271854240575,2.3038872089096243 1.830888211913209,6.79646726628339 1.830888211913209,32.484809645625695 l0,29.835339355379638 l-3.3184848840926913,3.340636452918956 l-3.3184848840926913,3.340636452918956 l-47.71752402298801,0 l-47.71752402298801,0 l-3.3184848840926913,-3.340636452918956 zm91.658841108905,-33.406364529189545 c0,-19.813429996622766 -0.2288610264891514,-23.038872089096238 -1.830888211913209,-23.614843891323645 c-2.2886102648915108,-0.9215548835638506 -75.29527771493069,-0.9215548835638506 -77.58388797982222,0 c-1.6020271854240575,0.5759718022274084 -1.830888211913209,3.8014138947008798 -1.830888211913209,23.614843891323645 l0,22.92367772865076 l40.62283220182432,0 l40.62283220182432,0 l0,-22.92367772865076 z" id="svg_2" fill="#ffffff" fill-opacity="1"/>
</g></g></svg>