<svg xmlns="http://www.w3.org/2000/svg" version="1.0" width="110" height="110" preserveAspectRatio="xMidYMid meet"><rect id="backgroundrect" width="100%" height="100%" x="0" y="0" fill="none" stroke="none" class=""/>
    <metadata>
        Created by potrace 1.13, written by Peter Selinger 2001-2015
    </metadata>

    <g class="currentLayer"><title>Layer 1</title><g transform="translate(0,126) scale(0.10000000149011612,-0.10000000149011612) " fill="#ffffff" stroke="none" id="svg_1" class="selected" fill-opacity="1">
        <path d="M609.6791304956823,1230.6373293109841 c-18.189354553127142,-12.805037272576998 -89.03210386530655,-121.15535265592082 -89.03210386530655,-135.93039566274044 c0,-4.925014335606538 286.2430005992114,-190.1055533544124 308.2616929529969,-198.97057915850408 c9.573344501645867,-3.9400114684852303 24.89069570427925,11.82003440545569 48.82405695839391,51.22014909030799 c69.88541486201483,118.2003440545569 59.35473591020437,150.70543866956007 -76.58675601316693,237.3856909762351 c-102.43478616761077,65.01018923000629 -149.3441742256755,76.83022363546199 -191.4668900329173,46.29513475470145 z" id="svg_2" fill="#ffffff" fill-opacity="1"/>
        <path d="M348.3268256007502,816.936125120035 c-80.41609381382526,-132.9753870613765 -144.55750197485256,-243.29570817896294 -142.6428330745234,-245.2657139132056 c50.73872585872308,-38.415111817730995 319.7497063549719,-201.92558775986802 324.5363786057949,-196.01557055714014 c10.53067895181045,12.805037272576998 278.58432499789467,457.0413303442866 283.3709972487176,470.8313704839849 c2.872003350493759,7.880022936970459 -53.61072920921684,49.25014335606537 -152.21617757616926,112.29032685182905 c-86.16010051481278,54.17515769167191 -158.91751872732138,99.48528957925204 -161.78952207781512,99.48528957925204 c-2.872003350493759,0 -70.84274931217941,-108.35031538334383 -151.25884312600468,-241.32570244472032 zm223.05892688834865,99.48528957925204 c7.658675601316693,-19.700057342426152 -203.91223788505692,-364.4510608348838 -225.93093023884242,-368.391072303369 c-40.20804690691263,-7.880022936970459 -23.93336125411466,32.505094615003145 80.41609381382526,204.88059636123197 c104.34945506793993,171.3904988791075 131.15481967254837,201.92558775986802 145.51483642501714,163.51047594213705 zm111.05079621909204,-67.96519783137022 c7.658675601316693,-10.835031538334382 -13.40268230230421,-53.1901548245506 -95.73344501645865,-190.1055533544124 c-58.397401460039774,-96.53028097788813 -111.05079621909204,-179.27052181607797 -116.79480292007955,-183.21053328456318 c-14.360016752468798,-8.865025804091767 -35.421374656089704,1.9700057342426143 -35.421374656089704,17.730051608183533 c0,13.790040139698304 180.93621108110685,319.1409289473036 208.69891013587986,351.6460235623068 c17.232020102962554,20.685060209547455 24.89069570427925,20.685060209547455 39.25071245674805,3.9400114684852303 z" id="svg_3" fill="#ffffff" fill-opacity="1"/>
        <path d="M176.0066245711247,448.545052816666 c0,-78.80022936970461 0,-79.7852322368259 26.80536460460842,-85.69524943955375 c67.97074596168565,-14.775043006819612 123.49614407123165,-55.160160558793216 151.25884312600468,-110.32032111758643 c1.9146689003291733,-4.925014335606538 137.85616082370044,60.085174894399756 137.85616082370044,65.99519209712761 c0,4.925014335606538 -211.57091348637363,144.79542146683218 -303.4750207021739,200.94058489274676 c-9.573344501645867,5.910017202727845 -12.445347852139625,-7.880022936970459 -12.445347852139625,-70.92020643273413 z" id="svg_4" fill="#ffffff" fill-opacity="1"/>
        <path d="M180.7932968219476,264.3495166649814 c3.8293378006583465,-42.35512328621623 8.616010051481277,-79.7852322368259 10.53067895181045,-81.75523797106852 c4.786672250822933,-4.925014335606538 128.28281632205457,50.23514622318669 134.0268230230421,59.10017202727845 c16.274685652797974,27.580080279396608 -54.56806365938143,86.68025230667506 -112.00813066925662,94.56027524364552 l-39.25071245674805,5.910017202727845 l6.701341151152106,-77.81522650258329 z" id="svg_5" fill="#ffffff" fill-opacity="1"/>
    </g></g></svg>